<svg id="visual" viewBox="0 0 600 900" width="600" height="900" xmlns="http://www.w3.org/2000/svg" xmlns:xlink="http://www.w3.org/1999/xlink" version="1.1"><rect x="0" y="0" width="600" height="900" fill="#eef9bf"></rect><defs><linearGradient id="grad1_0" x1="0%" y1="0%" x2="100%" y2="100%"><stop offset="30%" stop-color="#6a8caf" stop-opacity="1"></stop><stop offset="70%" stop-color="#6a8caf" stop-opacity="1"></stop></linearGradient></defs><defs><linearGradient id="grad1_1" x1="0%" y1="0%" x2="100%" y2="100%"><stop offset="30%" stop-color="#6a8caf" stop-opacity="1"></stop><stop offset="70%" stop-color="#65a6bf" stop-opacity="1"></stop></linearGradient></defs><defs><linearGradient id="grad1_2" x1="0%" y1="0%" x2="100%" y2="100%"><stop offset="30%" stop-color="#6fbfc4" stop-opacity="1"></stop><stop offset="70%" stop-color="#65a6bf" stop-opacity="1"></stop></linearGradient></defs><defs><linearGradient id="grad1_3" x1="0%" y1="0%" x2="100%" y2="100%"><stop offset="30%" stop-color="#6fbfc4" stop-opacity="1"></stop><stop offset="70%" stop-color="#8dd5c2" stop-opacity="1"></stop></linearGradient></defs><defs><linearGradient id="grad1_4" x1="0%" y1="0%" x2="100%" y2="100%"><stop offset="30%" stop-color="#bae9be" stop-opacity="1"></stop><stop offset="70%" stop-color="#8dd5c2" stop-opacity="1"></stop></linearGradient></defs><defs><linearGradient id="grad1_5" x1="0%" y1="0%" x2="100%" y2="100%"><stop offset="30%" stop-color="#bae9be" stop-opacity="1"></stop><stop offset="70%" stop-color="#eef9bf" stop-opacity="1"></stop></linearGradient></defs><defs><linearGradient id="grad2_0" x1="0%" y1="0%" x2="100%" y2="100%"><stop offset="30%" stop-color="#6a8caf" stop-opacity="1"></stop><stop offset="70%" stop-color="#6a8caf" stop-opacity="1"></stop></linearGradient></defs><defs><linearGradient id="grad2_1" x1="0%" y1="0%" x2="100%" y2="100%"><stop offset="30%" stop-color="#65a6bf" stop-opacity="1"></stop><stop offset="70%" stop-color="#6a8caf" stop-opacity="1"></stop></linearGradient></defs><defs><linearGradient id="grad2_2" x1="0%" y1="0%" x2="100%" y2="100%"><stop offset="30%" stop-color="#65a6bf" stop-opacity="1"></stop><stop offset="70%" stop-color="#6fbfc4" stop-opacity="1"></stop></linearGradient></defs><defs><linearGradient id="grad2_3" x1="0%" y1="0%" x2="100%" y2="100%"><stop offset="30%" stop-color="#8dd5c2" stop-opacity="1"></stop><stop offset="70%" stop-color="#6fbfc4" stop-opacity="1"></stop></linearGradient></defs><defs><linearGradient id="grad2_4" x1="0%" y1="0%" x2="100%" y2="100%"><stop offset="30%" stop-color="#8dd5c2" stop-opacity="1"></stop><stop offset="70%" stop-color="#bae9be" stop-opacity="1"></stop></linearGradient></defs><defs><linearGradient id="grad2_5" x1="0%" y1="0%" x2="100%" y2="100%"><stop offset="30%" stop-color="#eef9bf" stop-opacity="1"></stop><stop offset="70%" stop-color="#bae9be" stop-opacity="1"></stop></linearGradient></defs><g transform="translate(600, 0)"><path d="M0 432.7C-76.7 422 -153.5 411.3 -216.3 374.7C-279.2 338.1 -328.3 275.8 -362 209C-395.7 142.2 -414.2 71.1 -432.7 0L0 0Z" fill="#d3f1bd"></path><path d="M0 360.6C-63.9 351.6 -127.9 342.7 -180.3 312.2C-232.7 281.8 -273.5 229.8 -301.7 174.2C-329.8 118.5 -345.2 59.3 -360.6 0L0 0Z" fill="#a2dfc0"></path><path d="M0 288.4C-51.2 281.3 -102.3 274.2 -144.2 249.8C-186.1 225.4 -218.8 183.8 -241.3 139.3C-263.8 94.8 -276.1 47.4 -288.4 0L0 0Z" fill="#7ccac4"></path><path d="M0 216.3C-38.4 211 -76.7 205.6 -108.2 187.3C-139.6 169.1 -164.1 137.9 -181 104.5C-197.9 71.1 -207.1 35.6 -216.3 0L0 0Z" fill="#67b3c2"></path><path d="M0 144.2C-25.6 140.7 -51.2 137.1 -72.1 124.9C-93.1 112.7 -109.4 91.9 -120.7 69.7C-131.9 47.4 -138.1 23.7 -144.2 0L0 0Z" fill="#6699b8"></path><path d="M0 72.1C-12.8 70.3 -25.6 68.5 -36.1 62.4C-46.5 56.4 -54.7 46 -60.3 34.8C-66 23.7 -69 11.9 -72.1 0L0 0Z" fill="#6a8caf"></path></g><g transform="translate(0, 900)"><path d="M0 -432.7C70.1 -412.4 140.1 -392.1 207 -358.5C273.9 -325 337.6 -278.3 374.7 -216.3C411.8 -154.4 422.2 -77.2 432.7 0L0 0Z" fill="#d3f1bd"></path><path d="M0 -360.6C58.4 -343.6 116.8 -326.7 172.5 -298.8C228.2 -270.8 281.3 -231.9 312.2 -180.3C343.2 -128.6 351.9 -64.3 360.6 0L0 0Z" fill="#a2dfc0"></path><path d="M0 -288.4C46.7 -274.9 93.4 -261.4 138 -239C182.6 -216.7 225.1 -185.5 249.8 -144.2C274.5 -102.9 281.5 -51.5 288.4 0L0 0Z" fill="#7ccac4"></path><path d="M0 -216.3C35 -206.2 70.1 -196 103.5 -179.3C136.9 -162.5 168.8 -139.1 187.3 -108.2C205.9 -77.2 211.1 -38.6 216.3 0L0 0Z" fill="#67b3c2"></path><path d="M0 -144.2C23.4 -137.5 46.7 -130.7 69 -119.5C91.3 -108.3 112.5 -92.8 124.9 -72.1C137.3 -51.5 140.7 -25.7 144.2 0L0 0Z" fill="#6699b8"></path><path d="M0 -72.1C11.7 -68.7 23.4 -65.3 34.5 -59.8C45.6 -54.2 56.3 -46.4 62.4 -36.1C68.6 -25.7 70.4 -12.9 72.1 0L0 0Z" fill="#6a8caf"></path></g></svg>