<svg id="visual" viewBox="0 0 900 600" width="900" height="600" xmlns="http://www.w3.org/2000/svg" xmlns:xlink="http://www.w3.org/1999/xlink" version="1.1"><rect x="0" y="0" width="900" height="600" fill="#EEF9BF"></rect><defs><linearGradient id="grad1_0" x1="33.3%" y1="0%" x2="100%" y2="100%"><stop offset="20%" stop-color="#6a8caf" stop-opacity="1"></stop><stop offset="80%" stop-color="#6a8caf" stop-opacity="1"></stop></linearGradient></defs><defs><linearGradient id="grad1_1" x1="33.3%" y1="0%" x2="100%" y2="100%"><stop offset="20%" stop-color="#6a8caf" stop-opacity="1"></stop><stop offset="80%" stop-color="#65a6bf" stop-opacity="1"></stop></linearGradient></defs><defs><linearGradient id="grad1_2" x1="33.3%" y1="0%" x2="100%" y2="100%"><stop offset="20%" stop-color="#6fbfc4" stop-opacity="1"></stop><stop offset="80%" stop-color="#65a6bf" stop-opacity="1"></stop></linearGradient></defs><defs><linearGradient id="grad1_3" x1="33.3%" y1="0%" x2="100%" y2="100%"><stop offset="20%" stop-color="#6fbfc4" stop-opacity="1"></stop><stop offset="80%" stop-color="#8dd5c2" stop-opacity="1"></stop></linearGradient></defs><defs><linearGradient id="grad1_4" x1="33.3%" y1="0%" x2="100%" y2="100%"><stop offset="20%" stop-color="#bae9be" stop-opacity="1"></stop><stop offset="80%" stop-color="#8dd5c2" stop-opacity="1"></stop></linearGradient></defs><defs><linearGradient id="grad1_5" x1="33.3%" y1="0%" x2="100%" y2="100%"><stop offset="20%" stop-color="#bae9be" stop-opacity="1"></stop><stop offset="80%" stop-color="#eef9bf" stop-opacity="1"></stop></linearGradient></defs><defs><linearGradient id="grad2_0" x1="0%" y1="0%" x2="66.7%" y2="100%"><stop offset="20%" stop-color="#6a8caf" stop-opacity="1"></stop><stop offset="80%" stop-color="#6a8caf" stop-opacity="1"></stop></linearGradient></defs><defs><linearGradient id="grad2_1" x1="0%" y1="0%" x2="66.7%" y2="100%"><stop offset="20%" stop-color="#65a6bf" stop-opacity="1"></stop><stop offset="80%" stop-color="#6a8caf" stop-opacity="1"></stop></linearGradient></defs><defs><linearGradient id="grad2_2" x1="0%" y1="0%" x2="66.7%" y2="100%"><stop offset="20%" stop-color="#65a6bf" stop-opacity="1"></stop><stop offset="80%" stop-color="#6fbfc4" stop-opacity="1"></stop></linearGradient></defs><defs><linearGradient id="grad2_3" x1="0%" y1="0%" x2="66.7%" y2="100%"><stop offset="20%" stop-color="#8dd5c2" stop-opacity="1"></stop><stop offset="80%" stop-color="#6fbfc4" stop-opacity="1"></stop></linearGradient></defs><defs><linearGradient id="grad2_4" x1="0%" y1="0%" x2="66.7%" y2="100%"><stop offset="20%" stop-color="#8dd5c2" stop-opacity="1"></stop><stop offset="80%" stop-color="#bae9be" stop-opacity="1"></stop></linearGradient></defs><defs><linearGradient id="grad2_5" x1="0%" y1="0%" x2="66.7%" y2="100%"><stop offset="20%" stop-color="#eef9bf" stop-opacity="1"></stop><stop offset="80%" stop-color="#bae9be" stop-opacity="1"></stop></linearGradient></defs><g transform="translate(900, 0)"><path d="M0 432.7C-76.3 421.7 -152.5 410.7 -216.3 374.7C-280.1 338.7 -331.5 277.6 -365.5 211C-399.4 144.4 -416.1 72.2 -432.7 0L0 0Z" fill="#d3f1bd"></path><path d="M0 360.6C-63.6 351.4 -127.1 342.3 -180.3 312.2C-233.4 282.2 -276.2 231.4 -304.6 175.8C-332.9 120.3 -346.7 60.2 -360.6 0L0 0Z" fill="#a2dfc0"></path><path d="M0 288.4C-50.8 281.1 -101.7 273.8 -144.2 249.8C-186.8 225.8 -221 185.1 -243.6 140.7C-266.3 96.3 -277.4 48.1 -288.4 0L0 0Z" fill="#7ccac4"></path><path d="M0 216.3C-38.1 210.8 -76.3 205.4 -108.2 187.3C-140.1 169.3 -165.7 138.8 -182.7 105.5C-199.7 72.2 -208 36.1 -216.3 0L0 0Z" fill="#67b3c2"></path><path d="M0 144.2C-25.4 140.6 -50.8 136.9 -72.1 124.9C-93.4 112.9 -110.5 92.5 -121.8 70.3C-133.1 48.1 -138.7 24.1 -144.2 0L0 0Z" fill="#6699b8"></path><path d="M0 72.1C-12.7 70.3 -25.4 68.5 -36.1 62.4C-46.7 56.4 -55.2 46.3 -60.9 35.2C-66.6 24.1 -69.3 12 -72.1 0L0 0Z" fill="#6a8caf"></path></g><g transform="translate(0, 600)"><path d="M0 -432.7C71.9 -415.6 143.8 -398.5 210.5 -364.6C277.2 -330.7 338.5 -279.9 374.7 -216.3C410.9 -152.8 421.8 -76.4 432.7 0L0 0Z" fill="#d3f1bd"></path><path d="M0 -360.6C59.9 -346.3 119.9 -332.1 175.4 -303.8C231 -275.6 282.1 -233.3 312.2 -180.3C342.4 -127.3 351.5 -63.6 360.6 0L0 0Z" fill="#a2dfc0"></path><path d="M0 -288.4C47.9 -277.1 95.9 -265.7 140.3 -243.1C184.8 -220.5 225.7 -186.6 249.8 -144.2C273.9 -101.8 281.2 -50.9 288.4 0L0 0Z" fill="#7ccac4"></path><path d="M0 -216.3C36 -207.8 71.9 -199.3 105.2 -182.3C138.6 -165.3 169.3 -140 187.3 -108.2C205.4 -76.4 210.9 -38.2 216.3 0L0 0Z" fill="#67b3c2"></path><path d="M0 -144.2C24 -138.5 47.9 -132.8 70.2 -121.5C92.4 -110.2 112.8 -93.3 124.9 -72.1C137 -50.9 140.6 -25.5 144.2 0L0 0Z" fill="#6699b8"></path><path d="M0 -72.1C12 -69.3 24 -66.4 35.1 -60.8C46.2 -55.1 56.4 -46.7 62.4 -36.1C68.5 -25.5 70.3 -12.7 72.1 0L0 0Z" fill="#6a8caf"></path></g></svg>